<svg viewBox="16, 15, 32, 32" xmlns="http://www.w3.org/2000/svg">
  <g>
    <path d="M29.1,31c0.8-0.4,1.5-0.9,1.9-1.5c0.4-0.6,0.6-1.4,0.6-2.3c0-0.9-0.1-1.6-0.4-2.2 c-0.3-0.6-0.7-1.1-1.2-1.4c-0.5-0.4-1.1-0.6-1.9-0.8c-0.7-0.2-1.5-0.2-2.4-0.2H17v18.5h8.9c0.8,0,1.6-0.1,2.4-0.3 c0.8-0.2,1.5-0.5,2.1-1c0.6-0.4,1.1-1,1.5-1.7c0.4-0.7,0.5-1.5,0.5-2.4c0-1.2-0.3-2.1-0.8-3C31.1,31.9,30.2,31.3,29.1,31z  M21.1,25.7h3.8c0.4,0,0.7,0,1,0.1c0.3,0.1,0.6,0.2,0.9,0.3c0.3,0.2,0.5,0.4,0.6,0.6c0.2,0.3,0.2,0.6,0.2,1.1c0,0.8-0.2,1.3-0.7,1.7 c-0.5,0.3-1.1,0.5-1.8,0.5h-4.1V25.7z M28.2,36.7c-0.2,0.3-0.4,0.6-0.7,0.7c-0.3,0.2-0.6,0.3-1,0.4c-0.4,0.1-0.7,0.1-1.1,0.1h-4.3 v-5.1h4.4c0.9,0,1.6,0.2,2.1,0.6c0.5,0.4,0.8,1.1,0.8,2C28.4,36,28.3,36.4,28.2,36.7z M46.7,32.3c-0.2-0.9-0.6-1.8-1.2-2.5 C45,29,44.3,28.4,43.5,28c-0.8-0.4-1.8-0.7-3-0.7c-1,0-1.9,0.2-2.8,0.5c-0.8,0.4-1.6,0.9-2.2,1.5c-0.6,0.6-1.1,1.4-1.4,2.2 c-0.3,0.9-0.5,1.8-0.5,2.8c0,1,0.2,2,0.5,2.8c0.3,0.9,0.8,1.6,1.4,2.2c0.6,0.6,1.3,1.1,2.2,1.4c0.9,0.3,1.8,0.5,2.9,0.5 c1.5,0,2.8-0.3,3.9-1c1.1-0.7,1.9-1.8,2.4-3.4h-3.2c-0.1,0.4-0.4,0.8-1,1.2c-0.5,0.4-1.2,0.6-1.9,0.6c-1,0-1.8-0.3-2.4-0.8 c-0.6-0.5-0.9-1.5-0.9-2.6H47C47,34.2,47,33.2,46.7,32.3z M37.3,32.9c0-0.3,0.1-0.6,0.2-0.9c0.1-0.3,0.3-0.6,0.5-0.9 c0.2-0.3,0.5-0.5,0.9-0.7c0.4-0.2,0.9-0.3,1.5-0.3c0.9,0,1.6,0.3,2.1,0.7c0.4,0.5,0.8,1.2,0.8,2.1H37.3z M44.1,23.8h-7.5v1.8h7.5 V23.8z"></path>
  </g>
</svg>