<svg viewBox="16, 15, 32, 32" xmlns="http://www.w3.org/2000/svg">
  <g>
    <path d="M41.5,17c0,0-14.3,0-16.5,0c-2.3,0-3,1.7-3,2.8c0,1.1,0,26.3,0,26.3c0,1.2,0.7,1.7,1,1.8 c0.4,0.1,1.4,0.3,2-0.4c0,0,7.8-9.1,7.9-9.2c0.2-0.2,0.2-0.2,0.4-0.2c0.4,0,3.4,0,5.1,0c2.1,0,2.5-1.5,2.7-2.4 c0.2-0.7,2.3-11.3,2.9-14.7C44.6,18.4,43.9,17,41.5,17z M41.1,35.7c0.2-0.7,2.3-11.3,2.9-14.7 M40.5,21.5l-0.7,3.6 c-0.1,0.4-0.6,0.8-1,0.8c-0.5,0-6.4,0-6.4,0c-0.7,0-1.2,0.5-1.2,1.2v0.8c0,0.7,0.5,1.2,1.2,1.2c0,0,5,0,5.5,0c0.5,0,1,0.6,0.9,1.1 c-0.1,0.5-0.6,3.3-0.7,3.6c-0.1,0.3-0.4,0.8-1,0.8c-0.5,0-4.5,0-4.5,0c-0.8,0-1.1,0.1-1.6,0.8c-0.5,0.7-5.4,6.5-5.4,6.5 c0,0.1-0.1,0-0.1,0V21.4c0-0.5,0.4-1,1-1c0,0,12.8,0,13.3,0C40.2,20.4,40.6,20.9,40.5,21.5z"></path>
  </g>
</svg>