<svg viewBox="16, 15, 32, 32" xmlns="http://www.w3.org/2000/svg">
  <g>
    <path d="M35.4,17h-8c-1.1,0-2.2,0.1-3.4,0.4 c-1.2,0.3-2.4,0.9-3.5,1.8c-1.7,1.6-2.5,3.4-2.5,5.4c0,1.6,0.6,3.1,1.8,4.3c1.1,1.3,2.7,2,4.9,2c0.4,0,0.8,0,1.3-0.1 c-0.1,0.2-0.2,0.4-0.2,0.7c-0.1,0.2-0.2,0.5-0.2,0.9c0,0.6,0.1,1.1,0.4,1.5c0.2,0.4,0.5,0.8,0.8,1.2c-0.9,0-2.1,0.1-3.5,0.4 c-1.4,0.2-2.8,0.7-4.1,1.5c-1.2,0.7-1.9,1.5-2.4,2.4c-0.5,0.9-0.7,1.7-0.7,2.5c0,1.5,0.7,2.8,2.1,3.9c1.4,1.2,3.5,1.8,6.3,1.8 c3.3-0.1,5.9-0.9,7.7-2.4c1.7-1.5,2.6-3.2,2.6-5.2c0-1.4-0.3-2.5-0.9-3.3c-0.6-0.8-1.4-1.6-2.2-2.3l-1.4-1.1 c-0.2-0.2-0.4-0.4-0.6-0.7c-0.2-0.3-0.4-0.6-0.4-1c0-0.4,0.1-0.8,0.4-1.1c0.2-0.3,0.4-0.6,0.7-0.8c0.4-0.4,0.8-0.7,1.2-1.1 c0.3-0.4,0.6-0.7,0.9-1.2c0.6-0.9,0.9-2,0.9-3.4c0-0.8-0.1-1.5-0.3-2.1c-0.2-0.6-0.5-1.1-0.7-1.5c-0.3-0.5-0.6-0.8-0.9-1.2 c-0.3-0.3-0.6-0.5-0.8-0.7H33L35.4,17z M31,38.9c0.7,0.8,1,1.6,1,2.7c0,1.3-0.5,2.3-1.5,3.1c-1,0.8-2.4,1.2-4.3,1.3 c-2.1,0-3.8-0.5-5-1.4c-1.3-0.9-1.9-2.1-1.9-3.5c0-0.7,0.1-1.3,0.4-1.8c0.3-0.5,0.6-0.9,0.9-1.2c0.4-0.3,0.8-0.6,1.1-0.7 c0.4-0.2,0.7-0.3,0.9-0.4c0.9-0.3,1.7-0.5,2.5-0.6c0.8-0.1,1.4-0.1,1.6-0.1c0.3,0,0.6,0,0.9,0C29.2,37.3,30.3,38.2,31,38.9z  M29.7,27.1c-0.1,0.5-0.3,1.1-0.7,1.6c-0.7,0.7-1.6,1.1-2.6,1.1c-0.8,0-1.6-0.3-2.2-0.8c-0.6-0.5-1.2-1.1-1.6-1.9 c-0.8-1.6-1.3-3.1-1.3-4.5c0-1.1,0.3-2.1,0.9-3c0.7-0.9,1.6-1.3,2.7-1.3c0.8,0,1.5,0.3,2.2,0.7c0.6,0.5,1.1,1.1,1.5,1.9 c0.8,1.6,1.2,3.2,1.2,4.8C29.8,26.1,29.8,26.5,29.7,27.1z M43.7,29.5v-4.3h-2.5v4.3H37V32h4.2v4.2h2.5V32H48v-2.5H43.7z"></path>
  </g>
</svg>