<svg viewBox="16, 15, 32, 32" xmlns="http://www.w3.org/2000/svg">
  <g>
    <path d="M43.5,29.7h-2.6c0.2,0.7,0.3,1.5,0.3,2.3 c0,5.1-4.1,9.2-9.2,9.2c-5.1,0-9.2-4.1-9.2-9.2c0-0.8,0.1-1.6,0.3-2.3h-2.6v12.7c0,0.6,0.5,1.2,1.2,1.2h20.8c0.6,0,1.2-0.5,1.2-1.2 V29.7z M43.5,21.6c0-0.6-0.5-1.2-1.2-1.2h-3.5c-0.6,0-1.2,0.5-1.2,1.2v3.5c0,0.6,0.5,1.2,1.2,1.2h3.5c0.6,0,1.2-0.5,1.2-1.2V21.6z  M32,26.2c-3.2,0-5.8,2.6-5.8,5.8c0,3.2,2.6,5.8,5.8,5.8s5.8-2.6,5.8-5.8C37.8,28.8,35.2,26.2,32,26.2 M43.5,47H20.5 c-1.9,0-3.5-1.6-3.5-3.5V20.5c0-1.9,1.5-3.5,3.5-3.5h23.1c1.9,0,3.5,1.5,3.5,3.5v23.1C47,45.4,45.5,47,43.5,47"></path>
  </g>
</svg>