<svg viewBox="16, 15, 32, 32" xmlns="http://www.w3.org/2000/svg">
  <g>
    <path d="M25.4,22.9c2.8,0,4.1-1.7,3.9-3.1 c-0.1-1.2-1.3-2.4-3.6-2.4c-1.9,0-3.1,1.4-3.3,2.8C22.3,21.6,23.1,23,25.4,22.9z M39.2,22.6c2.6-0.1,3.8-1.5,3.8-2.8 c0-1.5-1.4-3-3.8-2.8c-1.9,0.2-3,1.5-3.2,2.8C35.9,21.3,36.9,22.7,39.2,22.6z M40.9,28.5c-6.6,0.7-6.9,0.7-19,1 c-5.1,0-4,17.5,6.9,17.5C39.2,47,51.7,27.4,40.9,28.5z M29,43.9c-9.5,0-8.2-11.3-6.6-11.4c11.1-0.4,13.9-0.9,17.8-0.9 C44.3,31.6,36.6,43.9,29,43.9z"></path>
  </g>
</svg>