<svg viewBox="16, 15, 32, 32" xmlns="http://www.w3.org/2000/svg">
  <g>
    <path d="M24.4,35l6.8,4.5v-4L27.4,33L24.4,35z M23.8,30.6v2.7l2.1-1.4L23.8,30.6z M31.2,28.5v-4L24.4,29 l3,2L31.2,28.5z M39.6,29l-6.8-4.5v4l3.7,2.5L39.6,29z M32,30l-3,2l3,2l3-2L32,30z M32,16c-8.8,0-16,7.2-16,16c0,8.8,7.2,16,16,16 s16-7.2,16-16C48,23.2,40.8,16,32,16z M41.9,35.1c0,0.3-0.1,0.6-0.4,0.7l-9.1,5.9c-0.3,0.2-0.6,0.2-0.9,0l-9.1-5.9 c-0.2-0.2-0.4-0.4-0.4-0.7v-6.2c0-0.3,0.1-0.6,0.4-0.7l9.1-5.9c0.3-0.2,0.6-0.2,0.9,0l9.1,5.9c0.2,0.2,0.4,0.4,0.4,0.7V35.1z  M32.8,35.5v4l6.8-4.5l-3-2L32.8,35.5z M40.2,33.4v-2.7L38.1,32L40.2,33.4z"></path>
  </g>
</svg>