<svg viewBox="16, 15, 32, 32" xmlns="http://www.w3.org/2000/svg">
  <g>
    <path d="M42.9,27.6c-2.1,0-3.6,1-5.8,3.5c-1.9-2.5-3.8-3.5-5.8-3.5c-1.7,0-3.7,0.7-4.7,3.2 c-1-2-2.7-2.6-4.1-2.6c-1,0-2,0.2-2.9,1.1l0.6-3.3h6.2v-2.5h-8.4l-1.5,8v0.2h2.7c0.6-1,1.5-1.2,2.3-1.2c1.2,0,2.3,0.6,2.6,2.4v0.7 c-0.2,1.6-1.3,2.6-2.6,2.6c-1.1,0-2.3-0.6-2.4-2.2h-3v0.7c0,0.3,0.5,1.5,0.5,1.6c1.3,2.1,3.4,2.5,5,2.5c1.8,0,3.9-0.7,5.1-3.2 c1.1,2.4,3,3.1,4.8,3.1c2.1,0,3.5-0.9,5.7-3.3c1.9,2.3,3.7,3.3,5.7,3.3c3.4,0,5.1-2.6,5.1-5.6C48,30,46.2,27.6,42.9,27.6z  M34.7,33.7c-0.4,0.4-1,0.9-1.4,1.1c-0.7,0.4-1.3,0.6-1.9,0.6c-0.6,0-1.7-0.4-2.1-1.3c-0.1-0.2-0.2-0.6-0.2-0.7v-0.9 c0.3-1.5,1.1-2.1,2.2-2.1c0.1,0,0.6,0,0.9,0.1c0.4,0.1,0.7,0.3,1.1,0.6c0.4,0.3,2,1.6,2,1.8C35.3,33.2,34.9,33.5,34.7,33.7z  M42.9,35.5c-1.3,0-2.6-0.9-3.9-2.3c1.4-1.5,2.5-2.6,3.8-2.6c1.5,0,2.3,1.1,2.3,2.5C45.2,34.4,44.4,35.5,42.9,35.5z"></path>
  </g>
</svg>