<svg viewBox="16, 15, 32, 32" xmlns="http://www.w3.org/2000/svg">
  <g>
    <path d="M43.6,30c-0.6,0-1.2,0.1-1.7,0.3c-0.3-4-3.7-7.1-7.7-7.1c-1,0-2,0.2-2.8,0.5 C31.1,23.9,31,24,31,24.3v13.9c0,0.3,0.2,0.5,0.5,0.5c0,0,12.2,0,12.2,0c2.4,0,4.4-1.9,4.4-4.4C48,31.9,46,30,43.6,30z M27.2,25.1 c-0.7,0-1.2,0.5-1.2,1.1v11.3c0,0.7,0.6,1.2,1.2,1.2c0.7,0,1.2-0.6,1.2-1.2V26.2C28.4,25.6,27.8,25.1,27.2,25.1z M22.2,27.8 c-0.7,0-1.2,0.5-1.2,1.1v8.5c0,0.7,0.6,1.2,1.2,1.2s1.2-0.6,1.2-1.2V29C23.4,28.3,22.9,27.8,22.2,27.8z M17.2,30.2 c-0.7,0-1.2,0.5-1.2,1.1v4.9c0,0.7,0.6,1.2,1.2,1.2c0.7,0,1.2-0.6,1.2-1.2v-4.9C18.5,30.7,17.9,30.2,17.2,30.2z"></path>
  </g>
</svg>