<svg viewBox="16, 15, 32, 32" xmlns="http://www.w3.org/2000/svg">
  <g>
    <path d="M46.2,27.6c-2.4-2.4-6.3-2.4-8.7,0l-9.8,9.8c-0.6,0.6-0.6,1.6,0,2.2c0.6,0.6,1.6,0.6,2.2,0 l9.8-9.8c1.2-1.2,3.2-1.2,4.4,0c1.2,1.2,1.2,3.2,0,4.4l-9.6,9.6c1.2,1.2,3.2,1.2,4.4,0l7.5-7.5C48.6,34,48.6,30,46.2,27.6z  M42.9,30.9c-0.6-0.6-1.6-0.6-2.2,0l-9.8,9.8c-1.2,1.2-3.2,1.2-4.4,0c-0.6-0.6-1.6-0.6-2.2,0c-0.6,0.6-0.6,1.6,0,2.2 c2.4,2.4,6.3,2.4,8.7,0l9.8-9.8C43.5,32.5,43.5,31.5,42.9,30.9z M39.6,21.1c-2.4-2.4-6.3-2.4-8.7,0l-9.8,9.8c-0.6,0.6-0.6,1.6,0,2.2 c0.6,0.6,1.6,0.6,2.2,0l9.8-9.8c1.2-1.2,3.2-1.2,4.4,0c0.6,0.6,1.6,0.6,2.2,0C40.2,22.7,40.2,21.7,39.6,21.1z M36.4,24.4 c-0.6-0.6-1.6-0.6-2.2,0l-9.8,9.8c-1.2,1.2-3.2,1.2-4.4,0c-1.2-1.2-1.2-3.2,0-4.4l9.6-9.6c-1.2-1.2-3.2-1.2-4.4,0l-7.5,7.5 c-2.4,2.4-2.4,6.3,0,8.7c2.4,2.4,6.3,2.4,8.7,0l9.8-9.8C37,25.9,37,25,36.4,24.4z"></path>
  </g>
</svg>