<svg viewBox="16, 15, 32, 32" xmlns="http://www.w3.org/2000/svg">
  <g>
    <path d="M48.769,46.072c2.85-2.068,4.672-5.121,4.672-8.518c0-6.219-6.053-11.262-13.518-11.262s-13.519,5.043-13.519,11.262 c0,6.221,6.054,11.266,13.519,11.266c1.541,0,3.031-0.219,4.412-0.617l0.396-0.061c0.262,0,0.494,0.08,0.717,0.209l2.963,1.709 l0.26,0.084c0.248,0,0.449-0.201,0.449-0.451l-0.074-0.328l-0.607-2.275l-0.047-0.285C48.392,46.5,48.54,46.232,48.769,46.072z M24.782,13.854c-8.959,0-16.222,6.053-16.222,13.519c0,4.072,2.185,7.74,5.604,10.219c0.274,0.193,0.455,0.514,0.455,0.879 l-0.057,0.344l-0.731,2.729l-0.088,0.395c0,0.299,0.243,0.541,0.541,0.541l0.313-0.102l3.551-2.051 c0.266-0.152,0.548-0.248,0.86-0.248l0.477,0.07c1.657,0.479,3.445,0.742,5.296,0.742l0.891-0.021 c-0.352-1.055-0.544-2.166-0.544-3.311c0-6.811,6.623-12.33,14.794-12.33l0.881,0.022C39.581,18.794,32.874,13.854,24.782,13.854z M35.415,35.754c-0.994,0-1.801-0.807-1.801-1.803s0.807-1.803,1.801-1.803c0.998,0,1.803,0.807,1.803,1.803 S36.413,35.754,35.415,35.754z M44.431,35.754c-0.998,0-1.805-0.807-1.805-1.803s0.807-1.803,1.805-1.803 c0.992,0,1.799,0.807,1.799,1.803S45.423,35.754,44.431,35.754z M19.375,25.21c-1.195,0-2.162-0.969-2.162-2.162 c0-1.194,0.967-2.163,2.162-2.163c1.194,0,2.163,0.969,2.163,2.163C21.538,24.241,20.569,25.21,19.375,25.21z M30.188,25.21 c-1.196,0-2.162-0.969-2.162-2.162c0-1.194,0.966-2.163,2.162-2.163c1.195,0,2.162,0.969,2.162,2.163 C32.351,24.241,31.384,25.21,30.188,25.21z"></path>
  </g>
</svg>