<svg viewBox="16, 15, 32, 32" xmlns="http://www.w3.org/2000/svg">
  <g>
    <path d="M32.309,15.962h-0.001c-0.028,0-0.054,0-0.078,0.001l0,0c0,0-0.513,0.005-0.554,0.005c-1.32,0-5.794,0.368-7.905,5.1c-0.71,1.592-0.54,4.296-0.403,6.469c0.016,0.256,0.033,0.522,0.048,0.779c-0.109,0.06-0.309,0.136-0.622,0.136c-0.419,0-0.914-0.132-1.472-0.394c-0.148-0.069-0.319-0.104-0.507-0.104c-0.653,0-1.434,0.43-1.555,1.07c-0.088,0.461,0.119,1.134,1.601,1.719c0.134,0.053,0.294,0.104,0.464,0.158c0.612,0.194,1.538,0.488,1.789,1.08c0.13,0.306,0.078,0.701-0.154,1.172c-0.005,0.011-0.01,0.021-0.015,0.032c-0.081,0.19-2.04,4.655-6.389,5.371c-0.334,0.055-0.573,0.353-0.555,0.692c0.006,0.101,0.03,0.201,0.071,0.298c0.326,0.763,1.703,1.322,4.21,1.711c0.084,0.113,0.171,0.514,0.224,0.758c0.052,0.241,0.106,0.489,0.183,0.751c0.076,0.257,0.272,0.565,0.776,0.565c0.204,0,0.444-0.047,0.723-0.102c0.418-0.082,0.99-0.193,1.706-0.193c0.397,0,0.809,0.035,1.223,0.103c0.809,0.135,1.496,0.621,2.292,1.183c1.14,0.806,2.431,1.718,4.393,1.718c0.054,0,0.108-0.002,0.162-0.006c0.064,0.003,0.146,0.006,0.234,0.006c1.963,0,3.253-0.913,4.392-1.718c0.798-0.563,1.484-1.049,2.293-1.184c0.414-0.069,0.825-0.103,1.222-0.103c0.683,0,1.223,0.087,1.706,0.181c0.302,0.059,0.545,0.089,0.723,0.089l0.019,0h0.018c0.373,0,0.636-0.197,0.74-0.554c0.076-0.256,0.13-0.498,0.183-0.743c0.053-0.243,0.14-0.642,0.223-0.754c2.508-0.389,3.884-0.948,4.21-1.707c0.042-0.097,0.066-0.198,0.072-0.3c0.019-0.339-0.22-0.636-0.554-0.691c-4.351-0.717-6.308-5.181-6.389-5.371c-0.005-0.011-0.01-0.022-0.015-0.032c-0.232-0.471-0.284-0.865-0.154-1.172c0.251-0.592,1.176-0.885,1.788-1.079c0.171-0.054,0.332-0.106,0.465-0.158c1.085-0.428,1.629-0.954,1.617-1.564c-0.009-0.478-0.382-0.905-0.974-1.117l-0.002-0.001c-0.199-0.083-0.436-0.128-0.667-0.128c-0.158,0-0.393,0.022-0.613,0.124c-0.516,0.242-0.98,0.373-1.379,0.391c-0.265-0.012-0.439-0.079-0.537-0.134c0.013-0.22,0.027-0.447,0.042-0.685l0.006-0.092c0.137-2.174,0.307-4.881-0.403-6.474C38.117,16.33,33.633,15.962,32.309,15.962L32.309,15.962z"></path>
  </g>
</svg>