<svg viewBox="16, 15, 32, 32" xmlns="http://www.w3.org/2000/svg">
  <g>
    <path d="M32,16c-1.4,0-2.5,1.1-2.5,2.5c0,1.4,1.1,2.5,2.5,2.5c1.4,0,2.5-1.1,2.5-2.5 C34.5,17.1,33.4,16,32,16z M18.5,29.5c-1.4,0-2.5,1.1-2.5,2.5c0,1.4,1.1,2.5,2.5,2.5c1.4,0,2.5-1.1,2.5-2.5 C20.9,30.6,19.8,29.5,18.5,29.5z M25.2,22.8c-1.4,0-2.5,1.1-2.5,2.5c0,1.4,1.1,2.5,2.5,2.5c1.4,0,2.5-1.1,2.5-2.5 C27.7,23.9,26.6,22.8,25.2,22.8z M38.7,27.6c1.4,0,2.5-1.1,2.5-2.5c0-1.4-1.1-2.5-2.5-2.5c-1.4,0-2.5,1.1-2.5,2.5 C36.2,26.5,37.3,27.6,38.7,27.6z M25.1,36.2c-1.4,0-2.5,1.1-2.5,2.5c0,1.4,1.1,2.5,2.5,2.5c1.4,0,2.5-1.1,2.5-2.5 C27.6,37.3,26.5,36.2,25.1,36.2z M31.9,34.4c1.4,0,2.5-1.1,2.5-2.5c0-1.4-1.1-2.5-2.5-2.5c-1.4,0-2.5,1.1-2.5,2.5 C29.5,33.3,30.6,34.4,31.9,34.4z M45.5,29.5c-1.4,0-2.5,1.1-2.5,2.5c0,1.4,1.1,2.5,2.5,2.5c1.4,0,2.5-1.1,2.5-2.5 C48,30.6,46.9,29.5,45.5,29.5z M32,43.1c-1.4,0-2.5,1.1-2.5,2.5c0,1.4,1.1,2.5,2.5,2.5c1.4,0,2.5-1.1,2.5-2.5 C34.5,44.2,33.4,43.1,32,43.1z M38.8,36.3c-1.4,0-2.5,1.1-2.5,2.5c0,1.4,1.1,2.5,2.5,2.5c1.4,0,2.5-1.1,2.5-2.5 C41.2,37.4,40.1,36.3,38.8,36.3z"></path>
  </g>
</svg>